Results
version=1
nRows=26
nColumns=24
inDegrees=yes
endheader
time	pelvis_tilt	pelvis_list	pelvis_rotation	pelvis_tx	pelvis_ty	pelvis_tz	hip_flexion_r	hip_adduction_r	hip_rotation_r	knee_angle_r	ankle_angle_r	subtalar_angle_r	mtp_angle_r	hip_flexion_l	hip_adduction_l	hip_rotation_l	knee_angle_l	ankle_angle_l	subtalar_angle_l	mtp_angle_l	lumbar_extension	lumbar_bending	lumbar_rotation
      1.38766667	      1.26745104	      6.20842434	     -5.70678723	      0.23645577	      1.01866666	      0.31605846	     12.64029804	     -7.48980793	      1.00793170	    -62.93490943	      0.05094819	    -14.14465926	      6.45399884	      5.74387825	     10.98444681	     -2.84196620	     -8.58127938	     -1.86693388	    -14.76554533	      7.02058775	     -5.60362842	     -8.32730534	      7.96399032
      1.39183333	      1.27702917	      6.08561481	     -5.56034272	      0.24140260	      1.01941221	      0.31594393	     13.09533379	     -7.30018110	      0.94911333	    -62.40681638	      0.29819038	    -14.03709449	      6.36295277	      5.23404774	     10.90402972	     -2.66619708	     -8.27178121	     -1.74466086	    -14.65810574	      6.98827909	     -5.67775069	     -8.20664733	      7.57978027
      1.39600000	      1.25713738	      5.95938392	     -5.40560692	      0.24635714	      1.02008503	      0.31583034	     13.56705642	     -7.10315081	      0.88194604	    -61.83073190	      0.55652427	    -13.94782402	      6.28446005	      4.76042696	     10.81221299	     -2.50957322	     -7.97179617	     -1.65085231	    -14.54874177	      6.95757331	     -5.71251437	     -8.06449241	      7.29836963
      1.40016667	      1.24036432	      5.83660869	     -5.25007603	      0.25130454	      1.02073211	      0.31573553	     14.02551646	     -6.91260879	      0.80713538	    -61.21280299	      0.79859673	    -13.84523356	      6.21709704	      4.28304862	     10.71951870	     -2.36032723	     -7.66685386	     -1.55820720	    -14.43058239	      6.92893137	     -5.75236556	     -7.93592222	      7.01974037
      1.40433333	      1.21154427	      5.70642000	     -5.08035336	      0.25623564	      1.02133060	      0.31562645	     14.48015660	     -6.71605154	      0.71621898	    -60.54602841	      1.03634869	    -13.73237224	      6.16561946	      3.82332969	     10.61570989	     -2.20661327	     -7.37075551	     -1.46941838	    -14.30814636	      6.90547369	     -5.77903232	     -7.79442830	      6.75327364
      1.40850000	      1.19543334	      5.58277993	     -4.90895580	      0.26115560	      1.02190290	      0.31552830	     14.91113321	     -6.53095067	      0.61805555	    -59.84116254	      1.26701355	    -13.61584684	      6.13119523	      3.35150561	     10.51548183	     -2.05679027	     -7.07245242	     -1.38745807	    -14.17889600	      6.88886567	     -5.82070478	     -7.66153940	      6.50832898
      1.41266667	      1.20230876	      5.48113079	     -4.73489472	      0.26605779	      1.02245196	      0.31541034	     15.31658696	     -6.38407774	      0.50490365	    -59.11663078	      1.47311510	    -13.46907175	      6.07874276	      2.84877363	     10.44197882	     -1.88271719	     -6.75380289	     -1.27292475	    -14.04871582	      6.86188184	     -5.90011557	     -7.54317054	      6.10125703
      1.41683333	      1.16652060	      5.35702033	     -4.54829192	      0.27096379	      1.02293221	      0.31532510	     15.74073771	     -6.20186792	      0.38603860	    -58.32892656	      1.67502949	    -13.35659759	      6.05128056	      2.40686025	     10.33134524	     -1.73262184	     -6.46885109	     -1.20117541	    -13.92214128	      6.84653816	     -5.91541552	     -7.41693896	      5.87854176
      1.42100000	      1.16862693	      5.26101070	     -4.36674565	      0.27584267	      1.02339320	      0.31521895	     16.12928080	     -6.06645696	      0.25839259	    -57.53217447	      1.85811314	    -13.21466570	      6.00938574	      1.91783075	     10.25535718	     -1.56131827	     -6.16090140	     -1.08802204	    -13.78816256	      6.82191619	     -5.98996289	     -7.31127982	      5.47385098
      1.42516667	      1.15039450	      5.15259349	     -4.17454657	      0.28072757	      1.02380485	      0.31511756	     16.51769742	     -5.91683147	      0.11829358	    -56.68618221	      2.02564680	    -13.09621506	      5.97356490	      1.45803833	     10.15924145	     -1.39570763	     -5.86860231	     -0.99185103	    -13.65993680	      6.79990643	     -6.03398821	     -7.19341619	      5.15769971
      1.42933333	      1.12467089	      5.05545234	     -3.98360278	      0.28559298	      1.02415896	      0.31502473	     16.90869335	     -5.78212836	     -0.02199792	    -55.81458702	      2.18729859	    -12.97561117	      5.94148772	      1.01243093	     10.07114352	     -1.23538417	     -5.58137826	     -0.90184535	    -13.52662261	      6.77889875	     -6.07151292	     -7.09047868	      4.83479433
      1.43350000	      1.09772807	      4.95590149	     -3.78840829	      0.29046638	      1.02447736	      0.31493129	     17.28502072	     -5.65034187	     -0.17680481	    -54.90516718	      2.32148853	    -12.86903459	      5.91551364	      0.57129975	      9.97695787	     -1.07750859	     -5.30095019	     -0.79929572	    -13.39918446	      6.76248019	     -6.09994763	     -6.97921518	      4.53189309
      1.43766667	      1.07945506	      4.86905237	     -3.59658112	      0.29530840	      1.02475069	      0.31485678	     17.64804311	     -5.53358394	     -0.32649518	    -53.97718750	      2.45637937	    -12.76559029	      5.89038206	      0.12619929	      9.89322993	     -0.91901969	     -5.02236968	     -0.71423804	    -13.26468914	      6.74624549	     -6.15142891	     -6.89270533	      4.20572123
      1.44183333	      1.05975840	      4.78056879	     -3.40501758	      0.30016353	      1.02498383	      0.31476513	     17.99891890	     -5.42497486	     -0.49393357	    -53.01634056	      2.55507963	    -12.66803022	      5.87197015	     -0.31388940	      9.80631664	     -0.76876661	     -4.75066115	     -0.60184924	    -13.14121108	      6.73553545	     -6.18574793	     -6.79053217	      3.92159611
      1.44600000	      1.00388484	      4.69643542	     -3.21293401	      0.30501049	      1.02513948	      0.31470212	     18.37666394	     -5.31471203	     -0.65262293	    -52.02547122	      2.65781464	    -12.57508730	      5.86343341	     -0.70290821	      9.71655636	     -0.63164487	     -4.49822648	     -0.53491339	    -13.01661364	      6.73176396	     -6.18129114	     -6.70368053	      3.72864856
      1.45016667	      0.98161864	      4.63496516	     -3.02700342	      0.30983923	      1.02525936	      0.31463558	     18.72110837	     -5.24113202	     -0.82022144	    -51.03293551	      2.71558205	    -12.50354149	      5.84625869	     -1.13317238	      9.65288604	     -0.47159560	     -4.23041725	     -0.39887722	    -12.89129938	      6.72488867	     -6.22348349	     -6.63914398	      3.30613435
      1.45433333	      0.94911161	      4.57008507	     -2.84283786	      0.31466093	      1.02534391	      0.31458884	     19.05972195	     -5.16137837	     -0.98361559	    -50.00445483	      2.77384712	    -12.43493303	      5.83000512	     -1.54310279	      9.58021857	     -0.32305082	     -3.97846865	     -0.30734683	    -12.76899991	      6.71889246	     -6.25422128	     -6.57441594	      3.00346552
      1.45850000	      0.89439616	      4.51418306	     -2.66123306	      0.31949082	      1.02534347	      0.31453832	     19.41539156	     -5.09608065	     -1.15453177	    -48.95978750	      2.80442343	    -12.37347541	      5.81556278	     -1.92189081	      9.51544157	     -0.18102215	     -3.73991026	     -0.19561782	    -12.65788058	      6.71574612	     -6.25086217	     -6.51361991	      2.72228492
      1.46266667	      0.83973468	      4.45516412	     -2.48546739	      0.32432503	      1.02532056	      0.31450408	     19.75493900	     -5.02874447	     -1.32660890	    -47.88242939	      2.82948483	    -12.30120020	      5.80814789	     -2.29314412	      9.44408934	     -0.05776709	     -3.51551415	     -0.10769004	    -12.54695021	      6.71619401	     -6.24272247	     -6.44672817	      2.55517622
      1.46683333	      0.79299808	      4.40776627	     -2.31435841	      0.32914939	      1.02524705	      0.31447061	     20.08137984	     -4.97895610	     -1.50254564	    -46.79428599	      2.81976040	    -12.25662688	      5.79817145	     -2.67117329	      9.38465564	      0.07597960	     -3.29231631	      0.01453434	    -12.43694581	      6.71765268	     -6.25298941	     -6.39577709	      2.27665913
      1.47100000	      0.73423492	      4.37507411	     -2.15595936	      0.33397810	      1.02510558	      0.31446942	     20.41576724	     -4.94275273	     -1.66911044	    -45.69394217	      2.80713380	    -12.20512637	      5.78981394	     -3.03376637	      9.33806900	      0.20037723	     -3.07066359	      0.12535591	    -12.32825963	      6.72013193	     -6.24034272	     -6.36420255	      2.04331792
      1.47516667	      0.68624243	      4.34394574	     -2.00375509	      0.33880723	      1.02494596	      0.31447718	     20.72738713	     -4.91253187	     -1.84511951	    -44.57218398	      2.77452873	    -12.15904360	      5.78207810	     -3.40588984	      9.29230718	      0.31826741	     -2.85129885	      0.23943108	    -12.22131578	      6.72311408	     -6.24489535	     -6.33711085	      1.82524663
      1.47933333	      0.64114991	      4.32797090	     -1.86345228	      0.34363066	      1.02473264	      0.31451186	     21.03160803	     -4.89309263	     -2.00275085	    -43.44113682	      2.71056473	    -12.16284981	      5.76851313	     -3.77833468	      9.26192155	      0.44044667	     -2.63747473	      0.38612664	    -12.11655460	      6.72750649	     -6.25819374	     -6.33064016	      1.46237944
      1.48350000	      0.57484993	      4.30619809	     -1.72499029	      0.34848337	      1.02446964	      0.31453520	     21.33998700	     -4.87493847	     -2.18161080	    -42.27995404	      2.65926304	    -12.09038466	      5.76138261	     -4.11890139	      9.22393531	      0.53772718	     -2.44433436	      0.49458024	    -12.02315776	      6.73097192	     -6.22922806	     -6.30877304	      1.32771665
      1.48766667	      0.51530541	      4.29603801	     -1.59605541	      0.35333615	      1.02417236	      0.31458459	     21.63342791	     -4.86681570	     -2.35432402	    -41.10449180	      2.57731895	    -12.05067257	      5.75319343	     -4.46664744	      9.19717649	      0.63974099	     -2.25063414	      0.62584271	    -11.92606466	      6.73511006	     -6.21276792	     -6.29857613	      1.13353694
      1.49183333	      0.45492294	      4.28516285	     -1.47501693	      0.35819837	      1.02383521	      0.31465308	     21.91497855	     -4.85687772	     -2.52863123	    -39.90835007	      2.48180280	    -12.01581440	      5.74530244	     -4.81127625	      9.16805703	      0.73849077	     -2.06239602	      0.76435833	    -11.83011785	      6.73946646	     -6.19529154	     -6.29149179	      0.93165651
